<svg xmlns="http://www.w3.org/2000/svg" width="256" height="256" viewBox="0 0 256 256"><defs><linearGradient id="g0" gradientUnits="userSpaceOnUse" x1="62" y1="70" x2="180" y2="220"><stop stop-color="#70A5F5"/><stop offset="1" stop-color="#2263D8"/></linearGradient><linearGradient id="g1" gradientUnits="userSpaceOnUse" x1="85" y1="145" x2="164" y2="207"><stop stop-color="#4389EE"/><stop offset="1" stop-color="#1B51B2"/></linearGradient><linearGradient id="g2" gradientUnits="userSpaceOnUse" x1="70" y1="61" x2="184" y2="128"><stop stop-color="#5899F4"/><stop offset="1" stop-color="#2263D8"/></linearGradient><linearGradient id="g3" gradientUnits="userSpaceOnUse" x1="106" y1="75" x2="150" y2="119"><stop stop-color="#FFE492"/><stop offset="1" stop-color="#BC7319"/></linearGradient><linearGradient id="g4" gradientUnits="userSpaceOnUse" x1="106" y1="75" x2="150" y2="119"><stop stop-color="#FFF0A8"/><stop offset="1" stop-color="#F8BB36"/></linearGradient></defs><ellipse cx="128" cy="225" rx="82.0" ry="7.5" fill="#3D3275" stroke="none" stroke-width="2" stroke-linecap="round" stroke-linejoin="round" opacity="0.12" /><path d="M 76 201 C 38 145 47 66 91 66 M 174 64 C 210 63 221 146 188 204" fill="none" stroke="#173D86" stroke-width="15" stroke-linecap="round" stroke-linejoin="round" opacity="1.0" /><path d="M 101 64 C 99 26 153 26 155 64" fill="none" stroke="#173D86" stroke-width="13" stroke-linecap="round" stroke-linejoin="round" opacity="1.0" /><path d="M 104 54 C 107 31 143 32 150 53" fill="none" stroke="#70A5F5" stroke-width="5" stroke-linecap="round" stroke-linejoin="round" opacity="1.0" /><rect x="60.5" y="67.5" width="137" height="155" rx="30" fill="url(#g0)" stroke="#173D86" stroke-width="3" stroke-linecap="round" stroke-linejoin="round" opacity="1.0" /><rect x="168.5" y="99.5" width="23" height="89" rx="5" fill="#FFD052" stroke="#BC7319" stroke-width="2" stroke-linecap="round" stroke-linejoin="round" opacity="1.0" /><rect x="75.5" y="143.5" width="103" height="65" rx="16" fill="url(#g1)" stroke="#173D86" stroke-width="2" stroke-linecap="round" stroke-linejoin="round" opacity="1.0" /><path d="M 88 158 L 167 158" fill="none" stroke="#F8CF68" stroke-width="3" stroke-linecap="round" stroke-linejoin="round" opacity="1.0" /><rect x="161.5" y="157.5" width="9" height="17" rx="3" fill="#FFD052" stroke="#BC7319" stroke-width="1.5" stroke-linecap="round" stroke-linejoin="round" opacity="1.0" /><path d="M 64 102 C 61 64 82 59 127 61 C 173 59 198 66 193 103 C 192 135 69 135 64 102 Z" fill="url(#g2)" stroke="#173D86" stroke-width="3" stroke-linecap="round" stroke-linejoin="round" opacity="1.0" /><ellipse cx="128" cy="100" rx="22.0" ry="22.0" fill="url(#g3)" stroke="#BC7319" stroke-width="2" stroke-linecap="round" stroke-linejoin="round" opacity="1.0" /><ellipse cx="128" cy="96" rx="18.7" ry="18.7" fill="url(#g4)" stroke="#EDAB25" stroke-width="1.4" stroke-linecap="round" stroke-linejoin="round" opacity="1.0" /><path d="M 120.08 103.16 L 120.08 90.84 L 128 97.88 L 135.92 90.84 L 135.92 103.16" fill="none" stroke="#BC7319" stroke-width="2.8600000000000003" stroke-linecap="round" stroke-linejoin="round" opacity="1.0" /><path d="M 118.1 89.08 C 121.4 86.0 125.8 84.9 130.86 86.0" fill="none" stroke="#FFF7CF" stroke-width="3" stroke-linecap="round" stroke-linejoin="round" opacity="1.0" /></svg>