<svg xmlns="http://www.w3.org/2000/svg" width="256" height="256" viewBox="0 0 256 256"><defs><linearGradient id="g0" gradientUnits="userSpaceOnUse" x1="43" y1="144" x2="207" y2="224"><stop stop-color="#65A0F3"/><stop offset="1" stop-color="#2263D8"/></linearGradient><linearGradient id="g1" gradientUnits="userSpaceOnUse" x1="42" y1="135" x2="205" y2="154"><stop stop-color="#BAD5FF"/><stop offset="1" stop-color="#5A92E0"/></linearGradient></defs><ellipse cx="128" cy="225" rx="82.0" ry="7.5" fill="#3D3275" stroke="none" stroke-width="2" stroke-linecap="round" stroke-linejoin="round" opacity="0.12" /><path d="M 75 103.98 C 37.300000000000004 82.52 57.019999999999996 52.36 75 68.6 C 92.98 52.36 112.69999999999999 82.52 75 103.98 Z" fill="#E6D7DA" stroke="#A63759" stroke-width="2.5" stroke-linecap="round" stroke-linejoin="round" opacity="1.0" /><path d="M 75 103.98 C 37.300000000000004 82.52 57.019999999999996 52.36 75 68.6 C 92.98 52.36 112.69999999999999 82.52 75 103.98 Z" fill="#EF7E92" stroke="none" stroke-width="2" stroke-linecap="round" stroke-linejoin="round" opacity="1.0" /><path d="M 75 103.98 C 37.300000000000004 82.52 57.019999999999996 52.36 75 68.6 C 92.98 52.36 112.69999999999999 82.52 75 103.98 Z" fill="none" stroke="#A63759" stroke-width="2.5" stroke-linecap="round" stroke-linejoin="round" opacity="1.0" /><path d="M 59.34 72.66 C 61.66 68.02 66.88 68.02 69.2 70.92" fill="none" stroke="#FFC4D0" stroke-width="2.9" stroke-linecap="round" stroke-linejoin="round" opacity="1.0" /><path d="M 128 89.22 C 87.7 66.28 108.78 34.04 128 51.4 C 147.22 34.04 168.3 66.28 128 89.22 Z" fill="#E6D7DA" stroke="#A63759" stroke-width="2.5" stroke-linecap="round" stroke-linejoin="round" opacity="1.0" /><path d="M 128 89.22 C 87.7 66.28 108.78 34.04 128 51.4 C 147.22 34.04 168.3 66.28 128 89.22 Z" fill="#EF7E92" stroke="none" stroke-width="2" stroke-linecap="round" stroke-linejoin="round" opacity="1.0" /><path d="M 128 89.22 C 87.7 66.28 108.78 34.04 128 51.4 C 147.22 34.04 168.3 66.28 128 89.22 Z" fill="none" stroke="#A63759" stroke-width="2.5" stroke-linecap="round" stroke-linejoin="round" opacity="1.0" /><path d="M 111.26 55.74 C 113.74 50.78 119.32 50.78 121.8 53.879999999999995" fill="none" stroke="#FFC4D0" stroke-width="3.1" stroke-linecap="round" stroke-linejoin="round" opacity="1.0" /><path d="M 180 106.98 C 142.3 85.52 162.02 55.36 180 71.6 C 197.98 55.36 217.7 85.52 180 106.98 Z" fill="#E6D7DA" stroke="#A63759" stroke-width="2.5" stroke-linecap="round" stroke-linejoin="round" opacity="1.0" /><path d="M 180 106.98 C 142.3 85.52 162.02 55.36 180 71.6 C 197.98 55.36 217.7 85.52 180 106.98 Z" fill="#EF7E92" stroke="none" stroke-width="2" stroke-linecap="round" stroke-linejoin="round" opacity="1.0" /><path d="M 180 106.98 C 142.3 85.52 162.02 55.36 180 71.6 C 197.98 55.36 217.7 85.52 180 106.98 Z" fill="none" stroke="#A63759" stroke-width="2.5" stroke-linecap="round" stroke-linejoin="round" opacity="1.0" /><path d="M 164.34 75.66 C 166.66 71.02 171.88 71.02 174.2 73.92" fill="none" stroke="#FFC4D0" stroke-width="2.9" stroke-linecap="round" stroke-linejoin="round" opacity="1.0" /><path d="M 65 150.15 C 22.75 126.1 44.849999999999994 92.3 65 110.5 C 85.15 92.3 107.25 126.1 65 150.15 Z" fill="#E6D7DA" stroke="#A63759" stroke-width="2.5" stroke-linecap="round" stroke-linejoin="round" opacity="1.0" /><path d="M 65 150.15 C 22.75 126.1 44.849999999999994 92.3 65 110.5 C 85.15 92.3 107.25 126.1 65 150.15 Z" fill="#EF7E92" stroke="none" stroke-width="2" stroke-linecap="round" stroke-linejoin="round" opacity="1.0" /><path d="M 65 150.15 C 22.75 126.1 44.849999999999994 92.3 65 110.5 C 85.15 92.3 107.25 126.1 65 150.15 Z" fill="none" stroke="#A63759" stroke-width="2.5" stroke-linecap="round" stroke-linejoin="round" opacity="1.0" /><path d="M 47.45 115.05 C 50.05 109.85 55.9 109.85 58.5 113.1" fill="none" stroke="#FFC4D0" stroke-width="3.25" stroke-linecap="round" stroke-linejoin="round" opacity="1.0" /><path d="M 110 138.32 C 63.2 111.68 87.68 74.24000000000001 110 94.4 C 132.32 74.24000000000001 156.8 111.68 110 138.32 Z" fill="#E6D7DA" stroke="#A63759" stroke-width="2.5" stroke-linecap="round" stroke-linejoin="round" opacity="1.0" /><path d="M 110 138.32 C 63.2 111.68 87.68 74.24000000000001 110 94.4 C 132.32 74.24000000000001 156.8 111.68 110 138.32 Z" fill="#EF7E92" stroke="none" stroke-width="2" stroke-linecap="round" stroke-linejoin="round" opacity="1.0" /><path d="M 110 138.32 C 63.2 111.68 87.68 74.24000000000001 110 94.4 C 132.32 74.24000000000001 156.8 111.68 110 138.32 Z" fill="none" stroke="#A63759" stroke-width="2.5" stroke-linecap="round" stroke-linejoin="round" opacity="1.0" /><path d="M 90.56 99.44 C 93.44 93.68 99.92 93.68 102.8 97.28" fill="none" stroke="#FFC4D0" stroke-width="3.5999999999999996" stroke-linecap="round" stroke-linejoin="round" opacity="1.0" /><path d="M 155 139.32 C 108.2 112.68 132.68 75.24000000000001 155 95.4 C 177.32 75.24000000000001 201.8 112.68 155 139.32 Z" fill="#E6D7DA" stroke="#A63759" stroke-width="2.5" stroke-linecap="round" stroke-linejoin="round" opacity="1.0" /><path d="M 155 139.32 C 108.2 112.68 132.68 75.24000000000001 155 95.4 C 177.32 75.24000000000001 201.8 112.68 155 139.32 Z" fill="#EF7E92" stroke="none" stroke-width="2" stroke-linecap="round" stroke-linejoin="round" opacity="1.0" /><path d="M 155 139.32 C 108.2 112.68 132.68 75.24000000000001 155 95.4 C 177.32 75.24000000000001 201.8 112.68 155 139.32 Z" fill="none" stroke="#A63759" stroke-width="2.5" stroke-linecap="round" stroke-linejoin="round" opacity="1.0" /><path d="M 135.56 100.44 C 138.44 94.68 144.92 94.68 147.8 98.28" fill="none" stroke="#FFC4D0" stroke-width="3.5999999999999996" stroke-linecap="round" stroke-linejoin="round" opacity="1.0" /><path d="M 198 149.05 C 162.25 128.7 180.95 100.1 198 115.5 C 215.05 100.1 233.75 128.7 198 149.05 Z" fill="#E6D7DA" stroke="#A63759" stroke-width="2.5" stroke-linecap="round" stroke-linejoin="round" opacity="1.0" /><path d="M 198 149.05 C 162.25 128.7 180.95 100.1 198 115.5 C 215.05 100.1 233.75 128.7 198 149.05 Z" fill="#EF7E92" stroke="none" stroke-width="2" stroke-linecap="round" stroke-linejoin="round" opacity="1.0" /><path d="M 198 149.05 C 162.25 128.7 180.95 100.1 198 115.5 C 215.05 100.1 233.75 128.7 198 149.05 Z" fill="none" stroke="#A63759" stroke-width="2.5" stroke-linecap="round" stroke-linejoin="round" opacity="1.0" /><path d="M 183.15 119.35 C 185.35 114.95 190.3 114.95 192.5 117.7" fill="none" stroke="#FFC4D0" stroke-width="2.75" stroke-linecap="round" stroke-linejoin="round" opacity="1.0" /><path d="M 42 146 L 217 146 C 215 219 186 230 129 230 C 72 231 44 213 42 146 Z" fill="#173D86" stroke="none" stroke-width="2" stroke-linecap="round" stroke-linejoin="round" opacity="1.0" /><path d="M 40 138 L 216 138 C 214 211 186 222 128 222 C 71 223 42 205 40 138 Z" fill="url(#g0)" stroke="#173D86" stroke-width="3" stroke-linecap="round" stroke-linejoin="round" opacity="1.0" /><ellipse cx="128" cy="142" rx="88.5" ry="12.5" fill="url(#g1)" stroke="#173D86" stroke-width="2" stroke-linecap="round" stroke-linejoin="round" opacity="1.0" /><path d="M 57 165 C 64 192 77 204 91 207" fill="none" stroke="#99C0FA" stroke-width="5" stroke-linecap="round" stroke-linejoin="round" opacity="1.0" /><path d="M 128 195.33 C 100.05 179.42 114.67 157.06 128 169.1 C 141.33 157.06 155.95 179.42 128 195.33 Z" fill="#E6D7DA" stroke="#A63759" stroke-width="2.5" stroke-linecap="round" stroke-linejoin="round" opacity="1.0" /><path d="M 128 195.33 C 100.05 179.42 114.67 157.06 128 169.1 C 141.33 157.06 155.95 179.42 128 195.33 Z" fill="#EF7E92" stroke="none" stroke-width="2" stroke-linecap="round" stroke-linejoin="round" opacity="1.0" /><path d="M 128 195.33 C 100.05 179.42 114.67 157.06 128 169.1 C 141.33 157.06 155.95 179.42 128 195.33 Z" fill="none" stroke="#A63759" stroke-width="2.5" stroke-linecap="round" stroke-linejoin="round" opacity="1.0" /><path d="M 116.39 172.11 C 118.11 168.67 121.98 168.67 123.7 170.82" fill="none" stroke="#FFC4D0" stroke-width="2.15" stroke-linecap="round" stroke-linejoin="round" opacity="1.0" /></svg>